<svg width="127" height="40" viewBox="0 0 127 40" fill="none" xmlns="http://www.w3.org/2000/svg">
<g filter="url(#filter0_d_1_957)">
<mask id="mask0_1_957" style="mask-type:luminance" maskUnits="userSpaceOnUse" x="3" y="0" width="121" height="33">
<path d="M124 0H3V33H124V0Z" fill="white"/>
</mask>
<g mask="url(#mask0_1_957)">
<path d="M52.2931 7.18773C52.2299 8.14855 51.7568 9.10496 50.6719 9.66029C49.4804 10.2686 48.3308 9.61842 48.1956 8.30942C48.0796 7.17157 48.8156 5.88241 49.8484 5.41963C51.1346 4.8452 52.2901 5.57683 52.2931 7.18773Z" fill="#595959"/>
<path d="M122.274 18.3341C121.718 17.5893 121.47 17.557 120.82 18.2291C120.028 19.0459 119.165 19.7695 118.176 20.338C116.527 21.2849 114.405 21.2761 113.192 20.2998C112.752 19.9458 112.261 19.5271 112.449 18.8968C112.634 18.2842 113.256 18.4803 113.721 18.4421C116.32 18.2261 118.564 17.3557 119.961 15.0264C121.756 12.0359 120.067 8.37122 116.751 8.12441C115.005 7.99513 113.456 8.60775 112.144 9.77719C110.157 11.5489 109.267 13.832 108.909 16.3846C108.607 18.5134 107.256 19.9693 105.535 21.0821C104.541 21.7264 103.764 21.1644 103.836 19.9656C103.889 19.0731 104.063 18.1953 104.281 17.3248C105.116 14.0061 106.08 10.7203 107.035 7.43318C107.642 5.34848 108.265 3.26818 108.883 1.18715C108.997 0.801504 109.077 0.420263 108.628 0.182263C107.564 -0.383354 105.973 0.253516 105.651 1.37079C104.542 5.2001 103.37 9.01103 102.361 12.8645C101.935 14.4887 100.951 14.8993 99.5223 15.0712C98.6687 15.1762 98.4101 14.9294 98.2867 14.0971C98.2294 13.7196 98.1942 13.3361 98.1244 12.9593C97.5434 9.73825 94.8769 8.49096 91.9849 10.0813C91.6301 10.2774 91.2657 10.5903 90.8529 10.2605C90.4482 9.93879 90.6391 9.51348 90.7618 9.1271C91.4251 7.03137 92.0877 4.93639 92.7657 2.84728C93.349 1.04832 93.3012 0.96972 91.42 1.00718C90.1903 1.03142 90.1036 1.09092 89.7635 2.27211C88.6771 6.05366 87.5966 9.83522 86.5123 13.6182C86.0518 15.2291 85.2335 15.8843 83.5557 15.985C82.7249 16.0357 82.4112 15.783 82.3591 14.9669C82.2923 13.9583 82.0572 13.0012 81.5592 12.1153C80.7563 10.6851 79.3136 10.0372 77.7005 10.3677C77.057 10.5 76.4847 10.7886 75.9096 11.0781C75.5761 11.2455 75.2272 11.3814 74.8988 11.0935C74.5903 10.8261 74.7005 10.4889 74.8033 10.1679C75.1412 9.09624 75.4835 8.02524 75.8244 6.95498C76.2372 5.66361 76.6669 4.38032 77.057 3.08307C77.3604 2.07524 77.1238 1.80272 76.0881 1.88132C75.806 1.90189 75.5188 1.94376 75.2382 1.92392C74.4977 1.86883 74.1209 2.18396 73.9174 2.90163C72.7745 6.93074 71.5257 10.9319 70.4995 14.994C70.3276 15.6772 69.9662 16.1201 69.3418 16.4191C68.8195 16.6689 68.2774 16.8121 67.7089 16.8672C66.8156 16.9531 66.4564 16.6667 66.416 15.78C66.3727 14.8178 66.1464 13.9157 65.6881 13.0658C64.8661 11.5453 63.325 10.8724 61.6428 11.2984C61.0081 11.4593 60.4315 11.7392 59.8784 12.0719C59.6205 12.2262 59.3532 12.3077 59.0836 12.1087C58.8213 11.9169 58.7824 11.64 58.8412 11.3513C58.8926 11.1016 58.9675 10.857 59.0439 10.6131C59.7168 8.49463 60.4029 6.37981 61.0618 4.25691C61.4746 2.93249 61.2513 2.67098 59.8909 2.80026C59.6852 2.8201 59.478 2.84728 59.2716 2.83846C58.5694 2.80687 58.1852 3.13596 57.9927 3.80074C56.6162 8.56295 55.241 13.3229 54.0055 18.1226C53.3987 20.4717 51.9943 22.35 50.1755 23.9323C49.7259 24.3223 49.1529 24.6573 48.5469 24.3216C47.9475 23.9888 47.9549 23.3409 48.0107 22.7503C48.101 21.8094 48.2619 20.8779 48.4918 19.959C49.0435 17.7523 49.7274 15.5824 50.39 13.4074C50.6529 12.545 50.4252 12.2659 49.5276 12.2989C49.1662 12.3114 48.8048 12.3408 48.4426 12.3379C47.8109 12.3342 47.4495 12.6163 47.2827 13.2333C46.7965 15.033 46.2389 16.8143 45.7761 18.6206C45.2237 20.7758 43.9214 22.4749 42.45 24.0615C41.9586 24.5912 41.3122 25.2126 40.4961 24.7587C39.7145 24.3223 39.8614 23.4915 39.9885 22.7533C40.4601 20.0178 41.5054 17.4556 42.4324 14.8574C42.8379 13.7196 42.6344 13.4404 41.3996 13.4353C40.1082 13.4287 38.8168 13.414 37.5247 13.3765C36.8849 13.3582 36.3619 13.1576 36.2613 12.404C36.2055 11.986 35.9065 11.8046 35.4826 11.8273C35.1484 11.8464 34.8127 11.8758 34.477 11.878C33.857 11.8795 33.5404 12.1931 33.4207 12.7786C32.4562 17.5437 30.8703 22.0834 28.361 26.2851C28.2126 26.5348 28.0775 26.814 28.278 27.0725C28.6945 27.6095 29.2271 28.0767 29.8933 28.1869C30.5243 28.289 30.6962 27.636 30.9452 27.2136C32.6545 24.3069 33.8592 21.1842 34.892 17.9948C35.5568 15.9372 35.5487 15.9365 37.7069 16.1921C38.5487 16.2913 38.7867 16.6439 38.5113 17.4482C38.1638 18.4641 37.7745 19.4654 37.4292 20.4805C36.9349 21.9445 36.655 23.4408 36.7667 24.9967C36.9327 27.3017 38.9997 28.6217 41.191 27.8189C42.2201 27.442 42.9686 26.7082 43.7171 25.9611C44.5156 25.1612 44.7867 25.2009 45.3266 26.1573C45.9466 27.2591 47.044 27.7755 48.4022 27.5948C49.4328 27.4582 50.3327 27.0255 51.0797 26.3189C51.6586 25.7724 52.2168 25.2031 52.7465 24.611C53.4443 23.8331 53.7308 23.8463 54.2766 24.7719C55.1757 26.2961 56.5295 27.0189 58.2991 27.0637C60.0437 27.11 61.4555 26.3776 62.6859 25.2538C64.1411 23.9212 65.0622 22.2486 65.7057 20.413C65.8541 19.992 66.0113 19.5689 66.5556 19.5462C67.2307 19.5197 67.8903 19.4161 68.5522 19.2979C69.1332 19.1936 69.4388 19.4786 69.4696 20.0449C69.4931 20.4783 69.4762 20.9132 69.499 21.3473C69.7142 25.3066 73.2673 27.3458 76.8587 25.5579C79.0888 24.4472 80.414 22.5307 81.255 20.316C81.6987 19.1502 82.1931 18.365 83.5829 18.5596C83.7056 18.5765 83.837 18.5214 83.9641 18.4979C85.1762 18.282 85.3121 18.3922 85.3304 19.613C85.3444 20.5643 85.4773 21.4942 85.8101 22.3919C86.3507 23.8529 87.4188 24.741 88.9144 25.1289C90.9175 25.6467 92.6342 25.0113 94.1533 23.742C95.4836 22.6313 96.5296 21.2592 97.0571 19.6461C97.5338 18.1909 98.2963 17.4504 99.858 17.601C99.9072 17.6076 99.9579 17.5856 100.009 17.5812C100.805 17.4997 101.072 17.7421 100.992 18.5222C100.919 19.2318 100.77 19.9347 100.812 20.5577C100.812 20.8331 100.811 21.0124 100.812 21.1901C100.829 24.4656 103.285 24.8688 105.347 24.157C105.73 24.0248 106.088 23.7956 106.426 23.5657C107.199 23.0398 107.837 22.3713 108.425 21.6558C109.144 20.778 109.382 20.7692 110.074 21.6331C110.943 22.7202 112.06 23.4247 113.436 23.6627C116.895 24.2628 119.716 23.0302 122.112 20.6377C123.142 19.6123 123.146 19.5021 122.274 18.3341ZM63.1354 17.7119C62.8247 19.7217 62.1247 21.5633 60.6247 23.0243C60.3514 23.2895 60.0356 23.5297 59.6977 23.706C58.3461 24.4061 57.0444 23.7545 56.816 22.2729C56.7572 21.896 56.7667 21.5104 56.7403 21.066C56.8799 18.9548 57.4638 16.9583 58.9815 15.3099C59.3847 14.8706 59.8652 14.5225 60.4293 14.3094C61.7501 13.8085 62.8137 14.3836 63.1399 15.7352C63.2993 16.4 63.2353 17.0597 63.1354 17.7119ZM79.1329 15.9203C78.9742 18.1351 78.283 20.1529 76.8087 21.8659C76.5619 22.1539 76.26 22.4124 75.9382 22.6189C74.3927 23.6069 72.8839 23.0243 72.7076 21.2246C72.4285 18.3679 73.2482 15.8182 75.5056 13.8746C76.188 13.2884 77.0482 12.9314 77.9414 13.3633C78.9933 13.8687 79.1446 14.8728 79.1329 15.9203ZM94.9459 15.9754C94.6785 17.7509 94.0079 19.3552 92.8921 20.7744C92.574 21.1784 92.2089 21.5324 91.7542 21.791C90.0978 22.7298 88.7014 21.993 88.5669 20.1022C88.55 19.8738 88.5633 19.6439 88.5633 19.4147C88.6235 17.2947 89.2148 15.3496 90.6054 13.6968C91.193 12.9997 91.8923 12.4363 92.8553 12.3371C93.8654 12.235 94.5243 12.6713 94.8592 13.6344C95.1281 14.4057 95.0664 15.1865 94.9459 15.9754ZM112.253 15.2144C112.546 13.9892 113.021 12.8344 113.918 11.903C114.164 11.6474 114.456 11.424 114.762 11.2433C115.679 10.6946 116.56 10.7012 117.131 11.2242C117.727 11.77 117.859 12.819 117.377 13.7122C116.486 15.3621 114.93 15.9424 113.378 16.1694C112.43 16.173 112.097 15.8667 112.253 15.2144ZM29.0515 14.9169C28.7481 21.0065 26.6957 26.2844 21.5868 30.0483C18.2651 32.4944 14.4453 33.2635 10.3678 32.9528C8.49975 32.8088 6.69198 32.3967 4.97456 31.6452C3.87711 31.1648 3.79044 30.9077 4.29949 29.8279C5.14277 28.0466 5.14277 28.0488 6.91749 28.8245C7.06 28.8869 7.2025 28.9486 7.34795 28.9986C8.25441 29.3159 8.58055 29.1661 8.82663 28.2559C9.32394 26.4056 9.78157 24.5449 10.287 22.6967C11.3051 18.9783 12.3445 15.2614 13.3795 11.5475C13.6807 10.4676 13.7886 10.3957 14.9375 10.3538C15.2717 10.342 15.6089 10.32 15.9431 10.3068C16.782 10.2715 17.0362 10.5624 16.8062 11.3734C16.2788 13.2421 15.7169 15.0998 15.1836 16.9671C14.1111 20.7259 13.1062 24.503 12.1638 28.2956C11.8031 29.7434 12.1248 30.0659 13.6623 29.9006C17.6194 29.4768 20.5805 27.4516 22.7122 24.2437C25.1289 20.6076 26.1022 16.616 25.3294 12.2732C24.495 7.59405 20.651 4.84163 15.88 5.52037C13.6366 5.84064 11.604 6.66629 9.78378 8.00614C8.94049 8.62759 8.78183 8.59233 8.22208 7.71305C7.02547 5.8355 7.00637 5.80318 8.95812 4.63228C11.9581 2.83479 15.2218 1.9085 18.7293 2.31618C24.3936 2.97582 28.0562 6.71257 28.8671 12.4583C28.9817 13.2715 29.0632 14.0839 29.0515 14.9169Z" fill="#595959"/>
</g>
</g>
<defs>
<filter id="filter0_d_1_957" x="-1" y="0" width="129" height="41" filterUnits="userSpaceOnUse" color-interpolation-filters="sRGB">
<feFlood flood-opacity="0" result="BackgroundImageFix"/>
<feColorMatrix in="SourceAlpha" type="matrix" values="0 0 0 0 0 0 0 0 0 0 0 0 0 0 0 0 0 0 127 0" result="hardAlpha"/>
<feOffset dy="4"/>
<feGaussianBlur stdDeviation="2"/>
<feComposite in2="hardAlpha" operator="out"/>
<feColorMatrix type="matrix" values="0 0 0 0 0 0 0 0 0 0 0 0 0 0 0 0 0 0 0.25 0"/>
<feBlend mode="normal" in2="BackgroundImageFix" result="effect1_dropShadow_1_957"/>
<feBlend mode="normal" in="SourceGraphic" in2="effect1_dropShadow_1_957" result="shape"/>
</filter>
</defs>
</svg>
