<svg width="145" height="33" viewBox="0 0 145 33" fill="none" xmlns="http://www.w3.org/2000/svg">
<path d="M1.60851 15.6211C2.1156 12.9842 4.44823 11.1587 7.69362 11.1587C11.4461 11.1587 14.3872 12.7813 14.3872 17.8523V27.2842H11.1418L10.7362 25.2558C9.62057 26.6757 8.09929 27.5885 5.86808 27.5885C3.12979 27.5885 1 25.8643 1 22.7204C1 19.5764 3.83972 17.548 7.79503 17.548H10.4319V16.8381C10.4319 15.0126 9.11347 14.5055 7.5922 14.5055C6.4766 14.5055 5.36099 14.9111 4.8539 16.331L1.60851 15.6211ZM6.78085 24.2416C8.60638 24.2416 10.4319 23.0246 10.4319 20.9963V20.692H7.89645C6.17234 20.5906 5.15816 21.3005 5.15816 22.7204C5.15816 23.4303 5.76667 24.2416 6.78085 24.2416Z" fill="#595959"/>
<path d="M78.0782 15.6211C78.5853 12.9842 80.918 11.1587 84.1633 11.1587C87.9158 11.1587 90.857 12.7813 90.857 17.8523V27.2842H87.6116L87.2059 25.2558C86.0903 26.6757 84.569 27.5885 82.3378 27.5885C79.5995 27.5885 77.4697 25.8643 77.4697 22.7204C77.4697 19.5764 80.3094 17.548 84.2648 17.548H86.9016V16.8381C86.9016 15.0126 85.5832 14.5055 84.0619 14.5055C82.9463 14.5055 81.8307 14.9111 81.3236 16.331L78.0782 15.6211ZM83.2506 24.2416C85.0761 24.2416 86.9016 23.0246 86.9016 20.9963V20.692H84.2648C82.5406 20.692 81.5265 21.3005 81.5265 22.7204C81.6279 23.4303 82.2364 24.2416 83.2506 24.2416Z" fill="#595959"/>
<path d="M94.4062 27.3856V11.3615H98.3616V13.9984C99.4772 12.0714 101.303 11.1587 103.027 11.1587C103.737 11.1587 104.345 11.2601 104.954 11.4629L104.244 15.114C103.737 14.8097 103.23 14.6069 102.621 14.6069C100.289 14.6069 98.3616 16.5338 98.3616 21.6048V27.2842L94.4062 27.3856Z" fill="#595959"/>
<path d="M113.372 11.1587C114.994 11.1587 116.516 11.97 117.226 12.8828V4.97217H121.181V27.3856H117.226V25.7629C116.718 26.5743 115.299 27.6899 113.372 27.6899C108.605 27.6899 106.171 24.3431 106.171 19.475C106.171 14.6069 108.605 11.1587 113.372 11.1587ZM113.98 24.2416C116.008 24.2416 117.631 22.5175 117.631 19.3735C117.631 16.2296 116.008 14.5055 113.98 14.5055C111.952 14.5055 110.329 16.2296 110.329 19.3735C110.329 22.5175 111.952 24.2416 113.98 24.2416Z" fill="#595959"/>
<path d="M135.38 13.6941L133.047 15.8239C132.337 14.8097 131.222 14.4041 130.41 14.4041C129.599 14.4041 128.889 14.9112 128.889 15.7225C128.889 16.4324 129.497 16.9395 130.41 17.2438C132.641 18.0551 136.191 18.7651 136.191 22.1119C136.191 25.053 133.96 27.3856 130.512 27.3856C127.165 27.3856 124.934 25.053 124.224 23.1261L127.368 21.4019C127.976 22.9232 128.99 24.0388 130.613 24.0388C131.83 24.0388 132.641 23.4303 132.641 22.3147C132.641 20.9963 130.613 20.692 128.686 19.8807C126.962 19.1707 125.441 18.0551 125.441 15.6211C125.441 13.187 127.469 10.9558 130.512 10.9558C132.54 11.0573 134.467 12.1729 135.38 13.6941Z" fill="#595959"/>
<path d="M53.636 11.3616L50.7963 22.4162L48.058 11.3616H44.4069L41.7701 22.4162L39.5389 16.0268L39.2346 16.7367L38.0176 20.8949L40.0459 27.3857H43.4942L46.2325 17.041L48.9708 27.3857H52.5204L57.5914 11.3616H53.636Z" fill="#595959"/>
<path d="M72.6017 11.3616L69.762 22.4162L67.0237 11.3616H63.3726L60.7357 22.4162L58.5045 16.0268L58.2003 16.7367L56.8818 20.8949L59.0116 27.3857H62.4599L65.1982 17.041L67.9365 27.3857H71.3847L76.557 11.3616H72.6017Z" fill="#595959"/>
<path d="M38.6262 11.3616L33.5553 27.2843H30.1071L27.3688 17.041L24.6305 27.3857H21.1823L16.1113 11.463H20.0666L22.9064 22.4162L25.6447 11.463H29.2957L32.034 22.4162L34.8737 11.463L38.6262 11.3616Z" fill="#595959"/>
<path d="M141.363 22.2134C142.885 22.2134 144 23.329 144 24.8503C144 26.3715 142.885 27.4871 141.363 27.4871C139.842 27.4871 138.727 26.3715 138.727 24.8503C138.727 23.329 139.842 22.2134 141.363 22.2134Z" fill="#595959"/>
</svg>
