<svg width="197" height="33" viewBox="0 0 197 33" fill="none" xmlns="http://www.w3.org/2000/svg">
<path d="M19.4637 21.2196L9.73187 11.5959L19.4637 1.97217H9.73187L0 11.5959L4.86594 16.4618L9.73187 21.2196L14.5978 25.9774L19.4637 21.2196Z" fill="#595959"/>
<path d="M26.3839 16.4619L21.518 11.5959L16.6521 6.83813L11.8943 11.5959L21.518 21.2197L11.7861 30.8434H21.518L26.3839 26.0856L31.2499 21.2197L26.3839 16.4619Z" fill="#595959"/>
<path d="M43.361 11.596C41.9552 11.596 40.7658 12.0285 39.9007 13.0017C39.0357 13.9749 38.6032 15.2724 38.6032 17.0026C38.6032 18.7327 39.0357 20.0302 39.7926 21.0034C40.6577 21.9766 41.739 22.4092 43.2528 22.4092C44.226 22.4092 45.1992 22.1929 46.3886 21.8685V23.2742C45.4155 23.5986 44.3341 23.8149 43.0366 23.8149C41.0902 23.8149 39.5763 23.2742 38.495 22.0848C37.4137 20.8953 36.873 19.1652 36.873 17.0026C36.873 15.5968 37.0893 14.4074 37.63 13.4342C38.1706 12.461 38.9276 11.596 39.7926 11.0553C40.6577 10.5146 41.8471 10.1902 43.2528 10.1902C44.6585 10.1902 45.848 10.4065 46.9293 10.9472L46.2805 12.2448C45.4155 11.9204 44.4423 11.596 43.361 11.596Z" fill="#595959"/>
<path d="M56.8776 20.1383C56.8776 21.3277 56.4451 22.1928 55.5801 22.8416C54.715 23.4903 53.6337 23.8147 52.1198 23.8147C50.4979 23.8147 49.3084 23.5985 48.4434 23.1659V21.6521C48.984 21.8684 49.6328 22.0846 50.1735 22.1928C50.7141 22.3009 51.4711 22.409 52.1198 22.409C53.2012 22.409 53.9581 22.1928 54.3906 21.8684C54.9313 21.4358 55.1475 20.8952 55.1475 20.2464C55.1475 19.8139 55.0394 19.3813 54.8231 19.1651C54.6069 18.8407 54.2825 18.6244 53.85 18.3C53.4174 18.0838 52.7686 17.7594 51.9036 17.435C50.7141 17.0024 49.7409 16.4618 49.3084 15.813C48.7678 15.1642 48.5515 14.4073 48.5515 13.4341C48.5515 12.4609 48.984 11.5958 49.7409 10.947C50.4979 10.2983 51.5792 10.082 52.7686 10.082C54.0662 10.082 55.2557 10.2983 56.4451 10.8389L56.0126 12.1365C54.9313 11.704 53.85 11.4877 52.7686 11.4877C51.9036 11.4877 51.3629 11.704 50.8223 12.0284C50.3897 12.3528 50.1735 12.8934 50.1735 13.5422C50.1735 13.9747 50.2816 14.4073 50.3897 14.6235C50.606 14.9479 50.8223 15.1642 51.2548 15.3805C51.6873 15.5967 52.228 15.9211 53.093 16.2455C54.4987 16.7862 55.4719 17.3268 56.0126 17.8675C56.6614 18.5163 56.8776 19.2732 56.8776 20.1383Z" fill="#595959"/>
<path d="M67.1501 20.1383C67.1501 21.3277 66.7176 22.1928 65.8525 22.8416C64.9875 23.4903 63.9062 23.8147 62.3923 23.8147C60.7703 23.8147 59.5809 23.5985 58.7158 23.1659V21.6521C59.2565 21.8684 59.9053 22.0846 60.4459 22.1928C60.9866 22.3009 61.7435 22.409 62.3923 22.409C63.4736 22.409 64.2305 22.1928 64.6631 21.8684C65.2037 21.4358 65.42 20.8952 65.42 20.2464C65.42 19.8139 65.3119 19.3813 65.0956 19.1651C64.8793 18.8407 64.5549 18.6244 64.1224 18.3C63.6899 18.0838 63.0411 17.7594 62.176 17.435C60.9866 17.0024 60.0134 16.4618 59.5809 15.813C59.0402 15.1642 58.824 14.4073 58.824 13.4341C58.824 12.4609 59.2565 11.5958 60.0134 10.947C60.7703 10.2983 61.8516 10.082 63.0411 10.082C64.3387 10.082 65.5281 10.2983 66.7176 10.8389L66.2851 12.1365C65.2037 11.704 64.1224 11.4877 63.0411 11.4877C62.176 11.4877 61.6354 11.704 61.0947 12.0284C60.6622 12.3528 60.4459 12.8934 60.4459 13.5422C60.4459 13.9747 60.5541 14.4073 60.6622 14.6235C60.8785 14.9479 61.0947 15.1642 61.5272 15.3805C61.9598 15.5967 62.5004 15.9211 63.3655 16.2455C64.7712 16.7862 65.7444 17.3268 66.2851 17.8675C66.8257 18.5163 67.1501 19.2732 67.1501 20.1383Z" fill="#595959"/>
<path d="M80.6663 16.7863C80.6663 18.9489 80.0176 20.679 78.8281 21.8685C77.6387 23.0579 75.9085 23.7067 73.6378 23.7067H69.3125V10.4065H73.854C76.0167 10.4065 77.6387 10.9472 78.8281 12.0285C80.0176 13.1098 80.6663 14.7318 80.6663 16.7863ZM76.9899 16.8944C76.9899 15.705 76.7736 14.7318 76.2329 14.1911C75.8004 13.6504 75.0435 13.3261 74.0703 13.3261H72.989V20.7872H73.7459C74.8272 20.7872 75.5841 20.4628 76.1248 19.814C76.7736 19.1652 76.9899 18.192 76.9899 16.8944Z" fill="#595959"/>
<path d="M87.8031 23.9231C86.073 23.9231 84.7754 23.4905 83.8022 22.5173C82.829 21.6523 82.3965 20.3547 82.3965 18.6246C82.3965 16.8945 82.829 15.5969 83.6941 14.6237C84.5591 13.6505 85.8567 13.218 87.4787 13.218C88.9925 13.218 90.182 13.6505 91.047 14.4074C91.9121 15.1644 92.3446 16.3538 92.3446 17.8677V19.4896H85.9648C85.9648 20.0303 86.1811 20.4628 86.6136 20.8954C87.0462 21.2198 87.5868 21.436 88.2356 21.436C88.8844 21.436 89.4251 21.3279 89.9657 21.2198C90.5064 21.1116 91.047 20.8954 91.6958 20.571V23.1661C91.1552 23.4905 90.6145 23.5987 89.9657 23.7068C89.3169 23.8149 88.6681 23.9231 87.8031 23.9231ZM87.5868 15.705C87.1543 15.705 86.8299 15.8132 86.5055 16.1376C86.1811 16.3538 86.073 16.7863 85.9648 17.327H88.9925C88.9925 16.7863 88.8844 16.462 88.56 16.1376C88.4519 15.8132 88.1275 15.705 87.5868 15.705Z" fill="#595959"/>
<path d="M102.293 20.5708C102.293 21.6521 101.968 22.5172 101.211 23.0578C100.455 23.5985 99.3732 23.9229 97.9675 23.9229C97.2106 23.9229 96.5618 23.9229 96.0211 23.8148C95.4805 23.7066 94.8317 23.5985 94.291 23.3822V20.5708C94.8317 20.7871 95.4805 21.0033 96.1293 21.2196C96.778 21.3277 97.3187 21.4359 97.8594 21.4359C98.6163 21.4359 99.0488 21.2196 99.0488 20.8952C99.0488 20.6789 98.9407 20.5708 98.7244 20.4627C98.5082 20.3545 97.8594 20.0302 96.8862 19.5976C95.913 19.1651 95.2642 18.7326 94.9398 18.3C94.6154 17.7594 94.3991 17.2187 94.3991 16.4618C94.3991 15.4886 94.7235 14.7317 95.4805 14.191C96.2374 13.6504 97.2106 13.4341 98.6163 13.4341C99.2651 13.4341 99.9139 13.5422 100.563 13.6504C101.211 13.7585 101.752 13.9748 102.401 14.2992L101.428 16.5699C100.995 16.3537 100.455 16.1374 99.9139 16.0293C99.3732 15.9211 98.9407 15.813 98.6163 15.813C98.0756 15.813 97.7512 15.9211 97.7512 16.2455C97.7512 16.4618 97.8594 16.5699 98.0756 16.6781C98.2919 16.7862 98.8326 17.0025 99.8057 17.435C100.563 17.7594 101.103 17.9756 101.428 18.3C101.752 18.6244 102.077 18.9488 102.185 19.2732C102.185 19.4895 102.293 20.0302 102.293 20.5708Z" fill="#595959"/>
<path d="M104.239 10.839C104.239 10.2984 104.347 9.86583 104.672 9.64957C104.996 9.4333 105.429 9.21704 106.077 9.21704C106.726 9.21704 107.267 9.32517 107.483 9.64957C107.808 9.86583 107.916 10.2984 107.916 10.839C107.916 11.9203 107.267 12.3529 105.969 12.3529C104.78 12.461 104.239 11.9203 104.239 10.839ZM107.808 23.7067H104.239V13.4342H107.808V23.7067Z" fill="#595959"/>
<path d="M120.026 13.4343V15.1644L118.621 15.705C118.837 16.0294 118.945 16.462 118.945 16.8945C118.945 17.9758 118.512 18.8409 117.756 19.4896C116.999 20.1384 115.809 20.3547 114.295 20.3547C113.863 20.3547 113.647 20.3547 113.43 20.2466C113.322 20.3547 113.322 20.571 113.322 20.6791C113.322 20.8954 113.43 21.0035 113.755 21.1116C114.079 21.2198 114.403 21.2198 114.836 21.2198H116.566C118.837 21.2198 120.026 22.1929 120.026 24.1393C120.026 25.4369 119.486 26.4101 118.404 27.0589C117.323 27.7077 115.809 28.1402 113.863 28.1402C112.457 28.1402 111.268 27.9239 110.511 27.3833C109.754 26.9507 109.321 26.1938 109.321 25.3288C109.321 24.1393 110.078 23.2743 111.592 22.9499C111.268 22.8417 111.051 22.6255 110.727 22.3011C110.511 21.9767 110.403 21.7604 110.403 21.436C110.403 21.1116 110.511 20.7872 110.619 20.571C110.835 20.3547 111.16 20.0303 111.7 19.7059C111.16 19.4896 110.727 19.0571 110.403 18.6246C110.078 18.0839 109.97 17.5433 109.97 16.7863C109.97 15.705 110.403 14.84 111.16 14.1912C111.916 13.5424 112.998 13.218 114.403 13.218C114.62 13.218 114.944 13.218 115.377 13.3261C115.809 13.3261 116.134 13.4343 116.35 13.4343H120.026ZM112.241 25.0044C112.241 25.3288 112.349 25.545 112.673 25.7613C112.998 25.9776 113.43 25.9776 113.971 25.9776C114.836 25.9776 115.485 25.8694 116.025 25.6532C116.566 25.4369 116.782 25.1125 116.782 24.7881C116.782 24.4637 116.674 24.3556 116.35 24.2474C116.025 24.1393 115.593 24.0312 114.944 24.0312H113.538C113.106 24.0312 112.89 24.1393 112.565 24.2474C112.349 24.4637 112.241 24.68 112.241 25.0044ZM113.322 16.7863C113.322 17.8677 113.647 18.4083 114.403 18.4083C114.728 18.4083 115.052 18.3002 115.16 17.9758C115.377 17.7595 115.485 17.327 115.485 16.7863C115.485 15.705 115.16 15.1644 114.403 15.1644C113.755 15.1644 113.322 15.705 113.322 16.7863Z" fill="#595959"/>
<path d="M128.028 23.7066V18.0838C128.028 17.435 127.92 16.8943 127.704 16.5699C127.488 16.2455 127.163 16.0293 126.731 16.0293C126.082 16.0293 125.649 16.2455 125.433 16.7862C125.217 17.2187 125 18.0838 125 19.2732V23.8148H121.432V13.5422H124.135L124.568 14.8398H124.784C125.109 14.4073 125.541 13.9748 126.082 13.7585C126.622 13.5422 127.271 13.4341 127.92 13.4341C129.109 13.4341 129.975 13.7585 130.623 14.4073C131.272 15.0561 131.597 16.0293 131.597 17.2187V23.9229H128.028V23.7066Z" fill="#595959"/>
<path d="M142.95 23.7067L141.328 19.4896H136.03L134.408 23.7067H132.894L138.193 10.4065H139.49L144.68 23.7067H142.95ZM140.788 18.0839L139.274 13.9748C139.058 13.4342 138.841 12.7854 138.625 12.0285C138.517 12.5691 138.301 13.2179 138.084 13.9748L136.571 18.0839H140.788Z" fill="#595959"/>
<path d="M154.304 23.7067L152.466 17.8676C152.358 17.5432 152.142 16.6781 151.817 15.4887H151.709C151.493 16.57 151.276 17.3269 151.06 17.9757L149.222 23.8148H147.492L144.789 13.8667H146.411C147.059 16.3537 147.492 18.3001 147.924 19.5977C148.249 20.8953 148.465 21.7603 148.465 22.1929H148.573C148.681 21.8685 148.789 21.4359 148.898 20.8953C149.006 20.3546 149.222 19.9221 149.33 19.5977L151.168 13.8667H152.79L154.52 19.5977C154.845 20.679 155.061 21.5441 155.169 22.1929H155.277C155.277 21.9766 155.385 21.6522 155.494 21.2197C155.602 20.7871 156.251 18.3001 157.332 13.8667H158.846L156.142 23.8148H154.304V23.7067Z" fill="#595959"/>
<path d="M166.739 23.7066L166.415 22.3009H166.307C165.766 22.9497 165.334 23.3822 164.793 23.5985C164.252 23.8147 163.712 23.9229 162.955 23.9229C161.981 23.9229 161.225 23.7066 160.684 23.1659C160.143 22.6253 159.819 21.9765 159.819 21.0033C159.819 18.9488 161.441 17.9756 164.685 17.8675L166.415 17.7593V17.1106C166.415 16.3536 166.199 15.7048 165.874 15.3804C165.55 15.056 165.009 14.8398 164.252 14.8398C163.387 14.8398 162.522 15.056 161.441 15.5967L161.008 14.4073C161.549 14.191 161.981 13.9747 162.63 13.7585C163.171 13.6503 163.82 13.5422 164.36 13.5422C165.55 13.5422 166.415 13.7585 166.956 14.2991C167.496 14.8398 167.821 15.7048 167.821 16.7862V23.5985H166.739V23.7066ZM163.279 22.6253C164.252 22.6253 164.901 22.409 165.442 21.8684C165.982 21.3277 166.199 20.6789 166.199 19.7057V18.8407L164.685 18.9488C163.495 18.9488 162.63 19.1651 162.09 19.4895C161.549 19.8139 161.333 20.3545 161.333 21.0033C161.333 21.544 161.549 21.9765 161.873 22.1928C162.306 22.5171 162.738 22.6253 163.279 22.6253Z" fill="#595959"/>
<path d="M175.498 13.5422C175.931 13.5422 176.363 13.5422 176.688 13.6503L176.471 15.056C176.039 14.9479 175.714 14.9479 175.39 14.9479C174.633 14.9479 173.876 15.2723 173.335 15.9211C172.795 16.5699 172.47 17.4349 172.47 18.4081V23.7066H170.957V13.7585H172.146L172.362 15.5967H172.47C172.795 14.9479 173.335 14.4073 173.768 14.0829C174.309 13.7585 174.849 13.5422 175.498 13.5422Z" fill="#595959"/>
<path d="M185.338 22.4092C184.581 23.3824 183.5 23.9231 182.094 23.9231C180.797 23.9231 179.824 23.4906 179.067 22.6255C178.31 21.7604 177.985 20.4629 177.985 18.8409C177.985 17.2189 178.31 15.9213 179.067 15.0563C179.824 14.1912 180.797 13.6506 182.094 13.6506C183.392 13.6506 184.473 14.1912 185.23 15.1644H185.338L185.23 14.4075V13.7587V9.5415H186.744V23.7068H185.555L185.338 22.4092ZM182.311 22.6255C183.392 22.6255 184.041 22.3011 184.581 21.7604C185.014 21.2198 185.23 20.2466 185.23 19.0571V18.7328C185.23 17.327 185.014 16.3539 184.473 15.7051C184.041 15.0563 183.284 14.84 182.202 14.84C181.337 14.84 180.689 15.1644 180.148 15.9213C179.715 16.5701 179.391 17.5433 179.391 18.8409C179.391 20.1385 179.607 21.1117 180.04 21.7604C180.689 22.3011 181.337 22.6255 182.311 22.6255Z" fill="#595959"/>
<path d="M196.368 21.0033C196.368 21.9765 196.043 22.6253 195.286 23.1659C194.638 23.7066 193.664 23.9229 192.367 23.9229C191.069 23.9229 189.988 23.7066 189.231 23.2741V21.8684C189.663 22.0846 190.204 22.3009 190.745 22.409C191.285 22.5171 191.826 22.6253 192.367 22.6253C193.124 22.6253 193.772 22.5171 194.205 22.3009C194.638 22.0846 194.854 21.6521 194.854 21.1114C194.854 20.6789 194.638 20.3545 194.313 20.1382C193.989 19.8138 193.34 19.4895 192.367 19.1651C191.394 18.8407 190.745 18.5163 190.42 18.3C189.988 18.0837 189.772 17.7593 189.555 17.4349C189.339 17.1106 189.231 16.678 189.231 16.2455C189.231 15.4886 189.555 14.8398 190.204 14.2991C190.853 13.7585 191.718 13.5422 192.907 13.5422C193.989 13.5422 195.07 13.7585 196.043 14.191L195.503 15.3804C194.529 14.9479 193.556 14.7316 192.799 14.7316C192.042 14.7316 191.502 14.8398 191.177 15.056C190.853 15.2723 190.637 15.5967 190.637 16.0292C190.637 16.2455 190.745 16.5699 190.853 16.678C190.961 16.8943 191.177 17.0024 191.502 17.2187C191.826 17.4349 192.367 17.6512 193.232 17.9756C194.421 18.4081 195.178 18.8407 195.611 19.2732C196.151 19.8139 196.368 20.3545 196.368 21.0033Z" fill="#595959"/>
</svg>
